<svg width="761" height="620" viewBox="0 0 761 620" fill="none" xmlns="http://www.w3.org/2000/svg">
<rect width="761" height="620" fill="#F5F5F5"/>
<rect width="761" height="620" fill="white"/>
<rect x="409" y="104.861" width="33" height="371" transform="rotate(-12 409 104.861)" fill="#1E3D79"/>
<rect x="519.135" y="98" width="33" height="371" transform="rotate(12 519.135 98)" fill="#791E34"/>
<rect x="572" y="104.861" width="33" height="371" transform="rotate(-12 572 104.861)" fill="#1E3D79"/>
<rect x="573.135" y="98" width="33" height="371" transform="rotate(12 573.135 98)" fill="#791E34"/>
<rect x="518" y="104.861" width="33" height="371" transform="rotate(-12 518 104.861)" fill="#1E3D79"/>
<rect x="463" y="104.861" width="33" height="371" transform="rotate(-12 463 104.861)" fill="#1E3D79"/>
<rect x="464.135" y="98" width="33" height="371" transform="rotate(12 464.135 98)" fill="#791E34"/>
<rect x="410.135" y="98" width="33" height="371" transform="rotate(12 410.135 98)" fill="#791E34"/>
<rect x="324" y="457" width="379" height="23" fill="white"/>
<rect x="400" y="82" width="262" height="23" fill="white"/>
<path d="M507.25 120.5L496.641 71.375H517.859L507.25 120.5Z" fill="#FF5858"/>
<path d="M451.25 120.5L440.641 71.375H461.859L451.25 120.5Z" fill="#FF5858"/>
<path d="M563.25 120.5L552.641 71.375H573.859L563.25 120.5Z" fill="#FF5858"/>
</svg>
